<?xml version="1.0" encoding="UTF-8"?>
<svg xmlns="http://www.w3.org/2000/svg" width="627" height="92" viewBox="0 0 627 92">
  <path d="M 414.00 73.00 L 414.00 81.75 L 477.75 81.75 L 477.75 73.00 L 476.50 72.00 L 415.00 72.00 Z M 414.00 42.50 L 414.50 48.75 L 414.00 51.00 L 414.75 51.75 L 477.00 51.75 L 477.75 51.00 L 477.75 42.75 L 477.00 42.00 L 414.50 42.00 Z M 286.25 13.00 L 280.25 16.00 L 273.00 23.50 L 271.00 29.25 L 272.00 39.50 L 274.25 43.25 L 281.25 48.75 L 301.50 53.75 L 307.75 56.75 L 310.00 59.00 L 310.75 62.50 L 307.50 67.75 L 298.50 69.50 L 288.75 69.00 L 275.00 63.00 L 270.00 73.75 L 277.75 78.75 L 290.25 81.75 L 308.75 80.75 L 317.25 76.75 L 323.75 69.50 L 325.75 63.50 L 325.75 58.00 L 323.75 52.00 L 315.50 45.00 L 289.00 37.00 L 285.75 31.25 L 289.25 25.75 L 294.50 23.75 L 304.50 23.75 L 318.50 28.75 L 322.75 17.75 L 316.50 14.00 L 308.75 12.00 Z M 414.00 12.25 L 414.00 20.00 L 415.00 20.75 L 476.50 20.75 L 477.75 19.75 L 477.75 12.25 L 476.50 11.25 L 420.50 11.25 L 418.50 11.75 L 415.25 11.25 Z M 199.50 11.00 L 199.25 81.50 L 214.75 81.75 L 214.75 64.25 L 224.75 53.75 L 247.25 81.75 L 264.75 81.75 L 234.75 43.25 L 263.75 11.25 L 246.50 11.00 L 215.25 44.50 L 214.75 11.00 Z M 143.25 11.00 L 143.00 81.75 L 193.75 81.75 L 193.50 68.75 L 159.50 69.00 L 158.75 68.25 L 158.75 11.50 Z M 92.25 12.00 L 80.25 19.00 L 74.00 26.25 L 71.00 31.50 L 68.00 44.25 L 70.00 58.50 L 75.00 67.50 L 83.25 75.75 L 90.75 79.75 L 97.25 80.75 L 98.50 81.75 L 108.25 81.75 L 109.50 80.75 L 116.50 79.75 L 126.50 73.75 L 133.75 65.50 L 136.75 59.50 L 137.75 53.75 L 138.75 52.50 L 138.75 39.75 L 137.75 38.50 L 136.75 32.50 L 131.75 24.25 L 125.50 18.00 L 119.50 14.00 L 110.75 11.00 L 96.00 11.00 Z M 98.25 12.00 L 105.75 11.75 L 112.50 12.75 L 121.50 16.75 L 124.50 18.75 L 131.75 26.50 L 137.00 37.50 L 137.75 44.75 L 137.00 55.00 L 134.00 62.50 L 128.25 70.00 L 122.50 75.00 L 111.50 79.75 L 105.50 80.50 L 97.25 80.00 L 92.75 79.00 L 83.25 74.00 L 73.75 63.50 L 69.75 53.25 L 69.75 40.00 L 70.75 36.25 L 71.75 35.50 L 71.75 33.25 L 74.75 27.25 L 80.50 20.75 L 87.25 15.75 Z M 72.00 42.00 L 71.75 42.50 L 72.00 42.75 L 72.00 53.00 L 73.00 54.50 L 72.75 55.50 L 73.00 56.75 L 74.00 58.25 L 74.00 59.50 L 75.00 60.25 L 75.00 61.50 L 76.00 62.25 L 76.00 63.25 L 78.00 65.50 L 78.00 66.50 L 83.25 71.75 L 85.50 72.75 L 86.25 73.75 L 88.50 74.75 L 89.00 75.50 L 89.75 75.50 L 90.75 74.50 L 90.75 74.00 L 89.75 74.00 L 88.75 73.00 L 87.25 73.00 L 85.25 71.00 L 84.50 71.00 L 79.75 66.50 L 79.00 65.50 L 78.75 64.25 L 77.00 62.50 L 76.75 61.25 L 75.75 59.25 L 75.00 58.50 L 74.75 56.25 L 73.75 55.25 L 73.75 52.75 L 73.25 51.50 L 73.25 49.00 L 72.75 46.75 L 73.00 44.75 L 73.50 44.00 L 73.50 42.50 L 73.00 42.00 Z M 98.25 23.00 L 97.25 24.00 L 95.25 24.00 L 94.50 25.00 L 91.50 26.00 L 84.00 33.25 L 83.00 36.50 L 82.00 37.25 L 82.00 38.50 L 81.00 39.50 L 81.00 42.00 L 80.25 43.25 L 80.25 49.25 L 83.00 57.50 L 84.00 58.25 L 85.00 60.50 L 89.25 64.75 L 96.50 68.75 L 98.50 68.75 L 99.75 69.50 L 107.50 69.50 L 108.75 68.75 L 110.50 68.75 L 111.50 67.75 L 113.50 67.75 L 120.25 62.75 L 122.75 59.50 L 125.75 54.25 L 125.75 52.25 L 126.75 49.75 L 126.75 42.50 L 125.75 38.25 L 124.75 37.50 L 123.75 34.25 L 122.75 33.50 L 121.75 31.25 L 118.50 28.00 L 116.25 27.00 L 115.50 26.00 L 112.50 25.00 L 111.50 24.00 L 110.00 24.00 L 108.75 23.00 Z M 97.75 24.75 L 109.50 24.75 L 110.25 25.75 L 112.00 25.75 L 113.25 26.75 L 114.25 26.75 L 120.00 31.50 L 120.25 32.50 L 122.75 35.25 L 124.00 37.75 L 124.00 39.50 L 125.00 40.25 L 125.00 43.75 L 125.75 45.25 L 125.75 47.25 L 125.00 48.25 L 125.00 52.25 L 124.00 53.25 L 124.00 54.50 L 122.00 57.50 L 122.00 58.50 L 115.50 64.75 L 111.00 67.00 L 109.25 67.00 L 108.50 68.00 L 99.25 68.00 L 97.75 67.00 L 96.25 67.00 L 95.50 66.00 L 93.75 66.00 L 91.50 64.00 L 89.25 63.00 L 86.75 60.50 L 86.50 59.25 L 84.75 57.50 L 83.75 55.50 L 83.75 54.25 L 82.75 53.25 L 82.75 51.25 L 81.75 50.25 L 81.75 42.25 L 85.00 34.25 L 91.25 27.75 L 92.50 27.75 L 94.50 26.00 L 96.75 25.75 Z M 63.50 11.00 L 10.00 11.00 L 10.00 81.75 L 25.75 81.75 L 26.25 55.75 L 59.00 55.50 L 59.00 43.00 L 26.25 43.00 L 25.75 24.25 L 60.00 22.75 L 62.50 23.75 L 63.75 22.50 Z M 565.25 10.75 L 565.00 81.75 L 616.75 81.75 L 616.75 69.00 L 580.75 68.50 L 580.75 11.00 Z M 513.50 10.00 L 482.00 81.50 L 497.75 81.75 L 504.50 65.75 L 537.50 65.75 L 544.50 81.75 L 560.50 81.75 L 560.75 80.25 L 543.75 44.25 L 528.75 10.00 Z M 520.25 26.50 L 521.50 26.75 L 522.75 28.25 L 522.75 29.50 L 524.00 31.50 L 524.00 32.50 L 525.00 33.25 L 524.75 34.50 L 526.00 35.50 L 526.00 37.50 L 527.00 38.25 L 527.00 39.75 L 528.00 40.50 L 528.00 42.50 L 529.00 43.25 L 529.00 44.75 L 530.00 45.75 L 530.00 47.50 L 531.00 48.25 L 531.00 49.75 L 532.00 51.00 L 532.00 52.25 L 533.00 53.00 L 532.75 54.00 L 510.25 54.00 L 509.75 53.50 L 509.75 52.25 L 510.75 51.75 L 510.75 49.50 L 511.75 48.75 L 511.75 47.25 L 512.75 46.50 L 512.75 44.75 L 513.75 43.75 L 513.75 42.25 L 514.75 41.50 L 514.75 39.50 L 515.75 38.75 L 515.75 37.25 L 516.75 36.50 L 516.75 34.75 L 518.00 33.50 L 517.75 32.25 L 518.75 31.75 L 519.00 31.25 L 518.75 30.25 L 519.75 29.50 L 520.00 28.75 L 519.75 27.00 Z M 330.00 11.00 L 330.50 81.75 L 345.00 81.25 L 345.50 39.75 L 366.00 73.50 L 372.50 74.00 L 394.25 38.75 L 396.00 39.50 L 395.00 81.25 L 409.75 81.75 L 409.50 10.00 L 396.25 11.00 L 370.50 55.00 L 342.50 10.00 Z" fill="#000000" fill-rule="evenodd" shape-rendering="geometricPrecision"/>
</svg>
