<svg xmlns="http://www.w3.org/2000/svg" width="627" height="92" viewBox="0 0 627 92" shape-rendering="geometricPrecision" text-rendering="geometricPrecision"><path d="M414 73v8.75h63.75V73l-1.25-1H415Zm0-30.5.5 6.25L414 51l.75.75H477l.75-.75v-8.25L477 42h-62.5ZM286.25 13l-6 3-7.25 7.5-2 5.75 1 10.25 2.25 3.75 7 5.5 20.25 5 6.25 3L310 59l.75 3.5-3.25 5.25-9 1.75-9.75-.5L275 63l-5 10.75 7.75 5 12.5 3 18.5-1 8.5-4 6.5-7.25 2-6V58l-2-6-8.25-7-26.5-8-3.25-5.75 3.5-5.5 5.25-2h10l14 5 4.25-11L316.5 14l-7.75-2ZM414 12.25V20l1 .75h61.5l1.25-1v-7.5l-1.25-1h-56l-2 .5-3.25-.5ZM199.5 11l-.25 70.5 15.5.25v-17.5l10-10.5 22.5 28h17.5l-30-38.5 29-32L246.5 11l-31.25 33.5-.5-33.5Zm-56.25 0L143 81.75h50.75l-.25-13-34 .25-.75-.75V11.5Zm-51 1-12 7L74 26.25l-3 5.25-3 12.75 2 14.25 5 9 8.25 8.25 7.5 4 6.5 1 1.25 1h9.75l1.25-1 7-1 10-6 7.25-8.25 3-6 1-5.75 1-1.25V39.75l-1-1.25-1-6-5-8.25L125.5 18l-6-4-8.75-3H96Zm6 0 7.5-.25 6.75 1 9 4 3 2 7.25 7.75 5.25 11 .75 7.25L137 55l-3 7.5-5.75 7.5-5.75 5-11 4.75-6 .75-8.25-.5-4.5-1-9.5-5-9.5-10.5-4-10.25V40l1-3.75 1-.75v-2.25l3-6 5.75-6.5 6.75-5Zm0 11-1 1h-2l-.75 1-3 1-7.5 7.25-1 3.25-1 .75v1.25l-1 1V42l-.75 1.25v6L83 57.5l1 .75 1 2.25 4.25 4.25 7.25 4h2l1.25.75h7.75l1.25-.75h1.75l1-1h2l6.75-5 2.5-3.25 3-5.25v-2l1-2.5V42.5l-1-4.25-1-.75-1-3.25-1-.75-1-2.25L118.5 28l-2.25-1-.75-1-3-1-1-1H110l-1.25-1Zm-.5 1.75h11.75l.75 1H112l1.25 1h1L120 31.5l.25 1 2.5 2.75 1.25 2.5v1.75l1 .75v3.5l.75 1.5v2l-.75 1v4l-1 1v1.25l-2 3v1l-6.5 6.25L111 67h-1.75l-.75 1h-9.25l-1.5-1h-1.5l-.75-1h-1.75l-2.25-2-2.25-1-2.5-2.5-.25-1.25-1.75-1.75-1-2v-1.25l-1-1v-2l-1-1v-8l3.25-8 6.25-6.5h1.25l2-1.75 2.25-.25ZM63.5 11H10v70.75h15.75l.5-26L59 55.5V43H26.25l-.5-18.75L60 22.75l2.5 1 1.25-1.25Zm501.75-.25-.25 71h51.75V69l-36-.5V11ZM513.5 10 482 81.5l15.75.25 6.75-16h33l7 16h16l.25-1.5-17-36-15-34.25Zm6.75 16.5 1.25.25 1.25 1.5v1.25l1.25 2v1l1 .75-.25 1.25 1.25 1v2l1 .75v1.5l1 .75v2l1 .75v1.5l1 1v1.75l1 .75v1.5l1 1.25v1.25l1 .75-.25 1h-22.5l-.5-.5v-1.25l1-.5V49.5l1-.75v-1.5l1-.75v-1.75l1-1v-1.5l1-.75v-2l1-.75v-1.5l1-.75v-1.75L518 33.5l-.25-1.25 1-.5.25-.5-.25-1 1-.75.25-.75-.25-1.75ZM330 11l.5 70.75 14.5-.5.5-41.5L366 73.5l6.5.5 21.75-35.25 1.75.75-1 41.75 14.75.5L409.5 10l-13.25 1-25.75 44-28-45Z" fill="#ffffff" fill-rule="evenodd"/></svg>